<svg width="214" height="304" viewBox="0 0 214 304" fill="none" xmlns="http://www.w3.org/2000/svg">
<path d="M71.5 1.5L111.5 27C114.833 21.5 121.4 9.6 121 6C129.8 4 132.667 9.83333 133 13L132.948 15.0941C147.732 16.6848 172.064 24.9031 175 43.5C176.2 64.7 180.5 87.3333 182.5 96L187 127C188.167 133.167 192.1 148.5 198.5 160.5C206.5 175.5 210 194 211 202C211.8 208.4 212.667 232.333 213 243.5C212.579 244.529 211.764 245.816 210.5 247.099C210.833 265.732 206.6 300.6 187 291C190.2 281 191 261.167 191 252.5C191 245.3 191.667 236.833 192 233.5L161 264.5L139 241.5L109 261C102 256 80 240.9 48 220.5C58 170.5 50.0085 125.667 44.7628 109.5C39.7433 129.935 38.1318 161.054 38 177C39 197.167 41 240.1 41 250.5C41 253.5 44 261.3 56 268.5C68 275.7 61 279.167 56 280C58.6667 285.5 60.5 297.3 46.5 300.5C29 304.5 24 305 20 290C16.8 278 16.6667 260.594 17 253.391C16.0482 253.271 15.2054 253.137 14.5 253C13 249.5 9.60001 240.7 8.00007 233.5C-0.399855 199.1 1.50004 156.833 3.49998 140C3.66665 126.833 4.8 92.9 8.00007 62.5C7.20007 32.1 27.0001 21.1667 37.0001 19.5L68.124 13C63.0961 4.92017 68.1004 1.96359 71.5 1.5Z" fill="white"/>
<path d="M111.5 27L71.5 1.5C68.1004 1.96359 63.0961 4.92017 68.124 13M111.5 27L88.5001 53C85.1667 44.3333 76.7 24.6 69.5 15C68.9757 14.3009 68.5189 13.6346 68.124 13M111.5 27L132 53L133 13C132.667 9.83333 129.8 4 121 6C121.4 9.6 114.833 21.5 111.5 27ZM111.5 27C114 35.1667 121 70.5 129 146.5C139 233.5 136.5 189 139 241.5M132 15C146.667 16.3333 172 24.5 175 43.5C176.2 64.7 180.5 87.3333 182.5 96L187 127C188.167 133.167 192.1 148.5 198.5 160.5C206.5 175.5 210 194 211 202C211.8 208.4 212.667 232.333 213 243.5C212.579 244.529 211.764 245.816 210.5 247.099M191 252.5C191 245.3 191.667 236.833 192 233.5M191 252.5C201.071 253.651 207.26 250.387 210.5 247.099M191 252.5C191 261.167 190.2 281 187 291C206.6 300.6 210.833 265.732 210.5 247.099M192 233.5C195.167 230.167 199.4 217 191 191C182.6 165 179.833 150.5 179.5 146.5C177.667 139.833 173.7 118.5 172.5 86.5M192 233.5L161 264.5L139 241.5M68.124 13L37.0001 19.5C27.0001 21.1667 7.20007 32.1 8.00007 62.5C4.8 92.9 3.66665 126.833 3.49998 140C1.50004 156.833 -0.399855 199.1 8.00007 233.5C9.60001 240.7 13 249.5 14.5 253C15.2054 253.137 16.0482 253.271 17 253.391M41 250.5C41 240.1 39 197.167 38 177C38.1318 161.054 39.7433 129.935 44.7628 109.5M41 250.5C33.4015 254.299 23.0195 254.147 17 253.391M41 250.5C41 253.5 44 261.3 56 268.5C68 275.7 61 279.167 56 280C58.6667 285.5 60.5 297.3 46.5 300.5C29 304.5 24 305 20 290C16.8 278 16.6667 260.594 17 253.391M49.5 96C47.6584 99.4321 46.0913 104.092 44.7628 109.5M44.7628 109.5C50.0085 125.667 58 170.5 48 220.5C80 240.9 102 256 109 261L139 241.5M163 67H137.5L139 100.5L156.5 114L168.5 98L163 67Z" stroke="#004F98" stroke-width="2" stroke-linecap="round" stroke-linejoin="round"/>
</svg>
