<svg width="227" height="315" viewBox="0 0 227 315" fill="none" xmlns="http://www.w3.org/2000/svg">
<path d="M48 223.5C45.15 244.305 44.3306 251.961 44.2759 253.921L44.5 254C45.9999 272 42.5 276 37.5 279.5C32.5 283 31.5 290.5 30.5 299.5C25.3 320.3 19 312.833 16.5 306.5C15.6667 303.833 13.6 296.2 12 287C-5.60004 270.6 2.66661 249.833 8.99993 241.5L5.99994 190.5C5.6666 178.333 6.39993 146.9 11.9999 118.5C18.9999 83 20 56.5 19.5 51.5C19 46.5 16 15 51 8C79 2.4 84.3333 3.33334 83.5 4.5C97.6666 23 131.7 48.3 154.5 1.5C162.5 8 181 8 193 39.5C194.5 46.8333 199 72.4 205 116C218.6 156.8 224.333 201.667 225.5 219C224.795 219.97 223.693 221.203 222.232 222.5V246C222.488 253.667 218.3 270.7 199.5 277.5C199.9 267.9 201.167 242.196 202.5 230.5V223.5C176.167 233.5 108.4 247.5 48 223.5Z" fill="white"/>
<path d="M66.5 69C63.1666 77.1667 56.1 105.5 54.5 153.5C50 211 53 187 48 223.5M48 223.5C44 252.7 44 256 44.5 254M48 223.5C108.4 247.5 176.167 233.5 202.5 223.5M44.5 254L26.75 247.75L8.99993 241.5M44.5 254C45.9999 272 42.5 276 37.5 279.5C32.5 283 31.5 290.5 30.5 299.5C25.3 320.3 19 312.833 16.5 306.5C15.6667 303.833 13.6 296.2 12 287C-5.60004 270.6 2.66661 249.833 8.99993 241.5M8.99993 241.5L5.99994 190.5C5.6666 178.333 6.39993 146.9 11.9999 118.5C18.9999 83 20 56.5 19.5 51.5C19 46.5 16 15 51 8C79 2.4 84.3333 3.33334 83.5 4.5C97.6666 23 131.7 48.3 154.5 1.5C162.5 8 181 8 193 39.5C194.5 46.8333 199 72.4 205 116C218.6 156.8 224.333 201.667 225.5 219C224.795 219.97 223.693 221.203 222.232 222.5M202.5 230.5C202.5 228.5 202.5 223.5 202.5 223.5M202.5 230.5C210.602 229.824 218.402 225.9 222.232 222.5M202.5 230.5C202.007 230.541 203.007 230.483 202.5 230.5ZM202.5 230.5C201.167 242.196 199.9 267.9 199.5 277.5C218.3 270.7 222.488 253.667 222.232 246V222.5M202.5 223.5C208.5 221.5 210.333 212 210.5 207.5C209.833 203.833 205.8 187.5 195 151.5C184.2 115.5 182.167 64.8333 182.5 44" stroke="#004F98" stroke-width="2" stroke-linecap="round" stroke-linejoin="round"/>
</svg>
