<?xml version="1.0" encoding="utf-8"?>
<!-- Generator: Adobe Illustrator 24.1.2, SVG Export Plug-In . SVG Version: 6.00 Build 0)  -->
<svg version="1.1" id="Layer_1" xmlns="http://www.w3.org/2000/svg" xmlns:xlink="http://www.w3.org/1999/xlink" x="0px" y="0px"
	 viewBox="0 0 248.5 265.3" style="enable-background:new 0 0 248.5 265.3;" xml:space="preserve">
<style type="text/css">
	.st0{fill:none;stroke:#004F98;stroke-width:2;stroke-linejoin:round;}
	.st1{fill:#FFFFFF;stroke:#004F98;stroke-width:2;stroke-linejoin:round;}
</style>
<path class="st0" d="M203.9,160.4c4,8.4,5,25.8,5,33.5c4.7-0.3,16.6-0.1,27,3.5c6-16.8-2.5-44.3-7.5-56c-4.8-8.5-15.5-31.4-19.5-55
	c-4-23.6-18.7-49.5-25.5-59.5c-2.3-3.5-10.5-8.4-24.5,0s-41.5,3.5-53.5,0C99.9,12.7,84.1-9.6,64.9,14.4c-24,30-18.5,24.5-47,68
	c-22.8,34.8-12.8,60.8-5,69.5l35.5,61l15-11.5l1.5,22c12,3,59,5.5,77.5-3c6.4-21.6-19.3-125-33-174 M203.9,160.4
	c-1.6-3.3-3.5-7.6-5.6-12.5 M203.9,160.4h-16 M180.9,62.4c3.5,5.5,2.5,39.5,5.5,52.5c2.1,9,7.2,22.2,11.9,33 M69.9,176.4
	c1.2-25.2,1.9-81.9-2.9-99.5c-5.6,12-17.3,29-22.5,36c-3.2,3.2-6.8,13.3,4,28.5c13.5,19,23.5,42,32,49 M126.4,163.9
	c-12.5-20.2-38.7-70.6-43.5-111c9.6-11.6,15.3-15.2,17-15.5 M79.4,173.9v-15.5 M79.4,158.4h32v-16l-36.5,2.5l1,13.5H79.4z
	 M191.9,185.9l-4-25.5 M187.9,160.4h-6v-12.5h16.4 M202.4,220.4c-6.8,1.3-22.5,3.3-30.5,0.5c1-11.5,3-58,0-106
	c-4.4-39.2-10.5-71.7-13-83l22,3.5c-0.5,26.3-1.9,80.5-3.5,86.5"/>
<path class="st1" d="M50.1,210.6l15.5-15c6-3.2,12.5-10.5,36-12.5c21-1,9,6,7,5.5c-3,1-12,1-13.5,1.5s-11.5,3,3,7
	c11.6,3.2,16.8,5.3,18,6c4.5,2.3,9.9,6.5-4.5,4.5c-7.3-1.4-12-2.6-14.7-3.4c6,2.2,15.3,5.7,20.2,8.4c7.5,4-4.5,5.5-26.5-2
	c28.5,12.5,19,12,15.5,11.5c-2.8-0.4-10.5-3.2-14-4.5C79.9,220.3,54.5,222.6,50.1,210.6z"/>
<path class="st1" d="M203.6,219.9c6.8-10.8,8.8-21.5,9-25.5c7.2-2.4,12.7-1,14.5,0c-0.2,11.5-0.9,38.2-2.5,53
	c-8.4,18.8-17.5,19.2-21,17l-2.5-7.5C201.9,249.4,203.6,231.5,203.6,219.9z"/>
</svg>
