<svg width="175" height="336" viewBox="0 0 175 336" fill="none" xmlns="http://www.w3.org/2000/svg">
<path d="M57 333.5C61 329.9 69.6666 308 73.5 297.5L64 331.5C114 335.5 124.5 321.5 127 318C127.5 232.5 144.5 178.5 151 148.5C166.2 92.1 170.333 63 170.5 55.5L173.5 1.5C127.5 21.5 48 14.5 24 4C37 82 27.5 28 42.5 91C54.5 141.4 39.8333 204.667 31 230C19.3333 255.167 -2.80004 307.3 1.99996 314.5C7.99996 323.5 52 338 57 333.5Z" fill="#376FA6"/>
<path d="M121 31.5C127.333 56.8333 133.8 121.1 109 175.5C92.2 233.9 78.3333 281.167 73.5 297.5M73.5 297.5C69.6666 308 61 329.9 57 333.5C52 338 7.99996 323.5 1.99996 314.5C-2.80004 307.3 19.3333 255.167 31 230C39.8333 204.667 54.5 141.4 42.5 91C27.5 28 37 82 24 4C48 14.5 127.5 21.5 173.5 1.5L170.5 55.5C170.333 63 166.2 92.1 151 148.5C144.5 178.5 127.5 232.5 127 318C124.5 321.5 114 335.5 64 331.5L73.5 297.5Z" stroke="#004F98" stroke-width="2" stroke-linecap="round" stroke-linejoin="round"/>
</svg>
