<?xml version="1.0" encoding="utf-8"?>
<!-- Generator: Adobe Illustrator 24.1.2, SVG Export Plug-In . SVG Version: 6.00 Build 0)  -->
<svg version="1.1" id="Layer_1" xmlns="http://www.w3.org/2000/svg" xmlns:xlink="http://www.w3.org/1999/xlink" x="0px" y="0px"
	 viewBox="0 0 204 408.2" style="enable-background:new 0 0 204 408.2;" xml:space="preserve">
<style type="text/css">
	.st0{fill:#376FA6;stroke:#004F98;stroke-width:2;stroke-linejoin:round;}
	.st1{fill:none;stroke:#004F98;stroke-width:2;stroke-linejoin:round;}
	.st2{fill:none;stroke:#004F98;stroke-width:3;stroke-linejoin:round;}
</style>
<path class="st0" d="M69.5,148c2-27.6,9.2-61.7,12.5-75c19.5,2,52.5-1.5,59.5-5.5c3.6-8.8-2.2-48.3-6-66.5h37c2,6-1,64.5-1,67
	c7.2,3.2,22,1,28.5-0.5c0.7,0,2,0.1,2,0.5c0.4,9.6-1.5,28.3-2.5,36.5c-1.7,4.3-5.5,14.4-7.5,20c-14.5,52.5-10,49.5-18.5,103
	c-4,44.8,1.7,81.3,5,94l-55,4.5l-2-85.5c-8.8,24.3-27.3,77.2-30.5,94c-22.8,2-44.5-7.8-52.5-13l18-81C60,221.2,67.5,175.6,69.5,148z
	"/>
<path class="st1" d="M51,328.5L47.5,349 M47.5,349c-8.7,12-27.4,36-33,36v11c4.7,2.5,17.4,6.4,31,2c6.4-8.8,18.7-23.7,24-30v-11.5
	C67.2,354,59.5,349,47.5,349z M74.5,333.5c-1,5.3-3.4,18.2-5,27"/>
<path class="st2" d="M131.4,346.7c1-1,7.5-7.5,7.5-9c0-1.2,0-10.2,0-14.5h21.5v17.5 M131.4,346.7c-0.8,0.8-0.3,11.3,0,16.5
	c19.2,6.3,59.8,18,69,14c11.5-5,5.5-17-8-20c-6.4-4.4-24-12.8-32-16.5 M131.4,346.7c16.8,4.8,26.3-2,29-6"/>
</svg>
