<?xml version="1.0" encoding="utf-8"?>
<!-- Generator: Adobe Illustrator 24.1.2, SVG Export Plug-In . SVG Version: 6.00 Build 0)  -->
<svg version="1.1" id="Layer_1" xmlns="http://www.w3.org/2000/svg" xmlns:xlink="http://www.w3.org/1999/xlink" x="0px" y="0px"
	 viewBox="0 0 145.5 157.8" style="enable-background:new 0 0 145.5 157.8;" xml:space="preserve">
<style type="text/css">
	.st0{fill:#004F98;}
	.st1{fill:none;stroke:#004F98;stroke-width:2;stroke-linecap:round;stroke-linejoin:round;}
</style>
<path class="st0" d="M44.9,79.1c-5.6-7.2-12.3-3-15,0c-4.5-18-3-26,2-35c-13-15.9,4-19.5,7.5-21.5c2.4-3.6,9.7-7.8,13-9.5
	c12-4.8,42-13.7,66-10.5c32.5,6.5,23.5,15,19.5,17c6,3-2,8-6,10c-0.8,9.6-11,13.7-16,14.5v-8c-15.2,3.2-47.7,0.3-62-1.5
	c-0.5,0.8-1.5,4.2-1.5,11c10.8,10.8-1.8,14.2-9.5,14.5C43.6,62.2,44.9,69.1,44.9,79.1z"/>
<path class="st1" d="M29.9,79.1c2.7-3,9.4-7.2,15,0c0-10-1.3-16.8-2-19c7.7-0.3,20.3-3.7,9.5-14.5c0-6.8,1-10.2,1.5-11
	c14.3,1.8,46.8,4.7,62,1.5c0,3.6,0,6.8,0,8 M29.9,79.1c-4.5-18-3-26,2-35c-13-15.9,4-19.5,7.5-21.5c2.4-3.6,9.7-7.8,13-9.5
	c12-4.8,42-13.7,66-10.5c32.5,6.5,23.5,15,19.5,17c6,3-2,8-6,10c-0.8,9.6-11,13.7-16,14.5 M29.9,79.1c-3.7,7.5-6.2,22.1,13,20.5
	c3,4.3,6.1,8.6,9,12.2 M115.9,44.1c-0.3,5.8,0.5,22.6,6.5,43c0,6,13,18.5-12,30.5c-5.4,2.6-10.4,4.4-14.8,5.5 M72.9,123.1
	c3,1.6,10.9,3,22.7,0 M61.4,120.1c-2.3-0.3-5.7-3.7-9.5-8.3 M51.9,111.7l-2,13.8l-3.6,22.5 M95.6,123.1c-0.1,7.9-0.2,15.8-0.3,23.7"
	/>
</svg>
