<svg width="129" height="116" viewBox="0 0 159 136" fill="none" xmlns="http://www.w3.org/2000/svg">
<path d="M80 1.49998C44 2.69998 30.6667 40.6666 28.5 59.5C19.1667 66.8333 0.800019 87 2.00002 109C3.20002 131 31.1667 133.833 45 132.5C58.8333 133.333 83.9 130.8 73.5 114C63.1 97.2 58.8333 94 57 94.5C48.5 89 40.4 64.6 60 69C76 58.6 89.3334 47 94 42.5L95.5 47.5C101.333 46.1667 113.3 42.4 114.5 38C115.7 33.6 115.667 41.8333 115.5 46.5C118.667 45.3333 125.1 42 125.5 38C125.9 34 128.333 42 129.5 46.5C131.167 45.8333 134.8 43.6 136 40C137.5 35.5 141.5 43 141 50C140.6 55.6 139.833 87 139.5 102C137.333 109.167 130.3 123.4 119.5 123L113 125C114.167 126.667 120.4 130.8 136 134C154 136 157.5 118.167 157 109C156.667 103 154.5 86 148.5 66C157.3 43.2 150.167 28.1667 145.5 23.5C138.667 15.6666 116 0.299978 80 1.49998Z" fill="#004F98"/>
<path d="M113 125C114.167 126.667 120.4 130.8 136 134C154 136 157.5 118.167 157 109C156.667 103 154.5 86 148.5 66C157.3 43.2 150.167 28.1667 145.5 23.5C138.667 15.6666 116 0.299978 80 1.49998C44 2.69998 30.6667 40.6666 28.5 59.5C19.1667 66.8333 0.800019 87 2.00002 109C3.20002 131 31.1667 133.833 45 132.5C58.8333 133.333 83.9 130.8 73.5 114C63.1 97.2 58.8333 94 57 94.5C48.5 89 40.4 64.6 60 69C76 58.6 89.3334 47 94 42.5L95.5 47.5C101.333 46.1667 113.3 42.4 114.5 38C115.7 33.6 115.667 41.8333 115.5 46.5C118.667 45.3333 125.1 42 125.5 38C125.9 34 128.333 42 129.5 46.5C131.167 45.8333 134.8 43.6 136 40C137.5 35.5 141.5 43 141 50C140.6 55.6 139.833 87 139.5 102C137.333 109.167 130.3 123.4 119.5 123L113 125ZM113 125C109.667 124.833 101.2 123.6 94 120" stroke="#004F98" stroke-width="2" stroke-linecap="round" stroke-linejoin="round"/>
</svg>
