<svg width="136" height="153" viewBox="0 0 136 153" fill="none" xmlns="http://www.w3.org/2000/svg">
<path d="M20.0609 83.6765C7.66086 19.6765 50.5609 3.00984 73.5609 2.6765C117.061 -8.8235 127.561 42.1765 129.561 54.1765C138.361 74.1765 133.227 87.8432 129.561 92.1765C124.894 96.3432 116.861 105.877 122.061 110.677C128.561 116.677 136.561 126.176 129.561 142.676C124.13 155.478 112.304 150.504 106.578 146.087C106.36 145.98 106.186 145.833 106.061 145.676C106.227 145.812 106.399 145.949 106.578 146.087C107.519 146.547 109.287 146.249 111.561 142.676C114.361 138.277 103.394 129.843 97.5608 126.177C96.5608 124.177 94.5608 117.577 94.5608 107.177C102.961 109.177 109.394 94.3432 111.561 86.6765C112.227 76.6765 113.161 54.6765 111.561 46.6765C109.561 36.6765 100.561 33.1765 89.5608 29.1765C86.3608 36.3765 74.5608 40.8432 69.0608 42.1765C63.5608 44.8432 52.5608 53.2765 52.5608 65.6765C49.7608 59.6765 44.3941 60.8432 42.0608 62.1765C42.0608 64.5098 41.5608 71.1765 39.5608 79.1765C61.2619 95.1765 68.0608 118.176 65.0608 139.676C62.0608 161.176 48.0608 147.176 42.0608 142.676C27.6608 142.676 23.0608 136.676 22.5608 133.676C21.0608 133.51 16.9608 132.676 12.5608 130.676C-10.9392 118.176 10.0608 91.1765 20.0609 83.6765Z" fill="#004F98" stroke="#004F98" stroke-width="2" stroke-linejoin="round"/>
</svg>
