<svg width="955" height="753" viewBox="0 0 955 753" fill="none" xmlns="http://www.w3.org/2000/svg">
<path d="M288.789 490.878L342.052 460.918L234.693 340.242L194.745 286.979L168.113 203.754V125.523L173.107 37.3055H159.791H127.333L84.0566 40.6345C72.4052 41.4667 49.1024 43.9634 49.1024 47.2924C45.7734 68.5979 13.8707 90.2917 0 98.0593L53.2636 165.471L90.7146 193.767L121.508 228.305L135.656 248.279L143.978 266.173V311.946L138.985 350.229L194.745 424.299V440.112L199.739 445.105L205.564 440.112L276.305 510.02L284.627 503.362L288.789 490.878Z" fill="#B4D6F6" fill-opacity="0.7"/>
<path d="M954.584 685.207L763.168 322.349L463.144 341.491L433.183 292.388L403.222 257.018L398.229 237.044L367.852 248.695L248.009 276.992L233.028 288.643L199.322 297.382L278.386 385.6L382.416 507.939L494.353 579.929L635.002 671.475L644.573 685.207L778.98 733.894L954.584 752.619V685.207Z" fill="#B4D6F6" fill-opacity="0.7"/>
<path d="M620.438 602.399L592.558 584.506L602.129 574.519L631.257 592.412L620.438 602.399Z" fill="white"/>
<path d="M660.802 655.663L692.427 619.044L714.065 623.621L698.669 653.166H685.353L677.031 663.153L660.802 655.663Z" fill="white"/>
<path d="M620.438 602.399L592.558 584.506L602.129 574.519L631.257 592.412L620.438 602.399Z" stroke="#004F98" stroke-width="2" stroke-linejoin="round"/>
<path d="M660.802 655.663L692.427 619.044L714.065 623.621L698.669 653.166H685.353L677.031 663.153L660.802 655.663Z" stroke="#004F98" stroke-width="2" stroke-linejoin="round"/>
<path d="M577.161 502.946L585.484 494.207L569.671 483.804L560.516 492.959L577.161 502.946Z" fill="white"/>
<path d="M597.551 500.033L606.706 490.462L629.176 504.611L620.022 513.765L597.551 500.033Z" fill="white"/>
<path d="M590.477 554.129L533.468 518.343L525.978 525L518.072 520.423L510.582 529.162L518.072 533.739L516.407 535.404L575.497 571.606L590.477 554.129Z" fill="white"/>
<path d="M407.383 449.266L397.397 453.844L392.403 448.434L402.806 443.857L407.383 449.266Z" fill="white"/>
<path d="M424.444 448.434L409.88 459.253L457.734 499.201L473.547 488.382L424.444 448.434Z" fill="white"/>
<path d="M577.161 502.946L585.484 494.207L569.671 483.804L560.516 492.959L577.161 502.946Z" stroke="#004F98" stroke-width="2" stroke-linejoin="round"/>
<path d="M597.551 500.033L606.706 490.462L629.176 504.611L620.022 513.765L597.551 500.033Z" stroke="#004F98" stroke-width="2" stroke-linejoin="round"/>
<path d="M590.477 554.129L533.468 518.343L525.978 525L518.072 520.423L510.582 529.162L518.072 533.739L516.407 535.404L575.497 571.606L590.477 554.129Z" stroke="#004F98" stroke-width="2" stroke-linejoin="round"/>
<path d="M407.383 449.266L397.397 453.844L392.403 448.434L402.806 443.857L407.383 449.266Z" stroke="#004F98" stroke-width="2" stroke-linejoin="round"/>
<path d="M424.444 448.434L409.88 459.253L457.734 499.201L473.547 488.382L424.444 448.434Z" stroke="#004F98" stroke-width="2" stroke-linejoin="round"/>
<path d="M391.987 452.595V448.85L396.98 453.844L407.383 449.682V452.595L396.98 457.589L391.987 452.595Z" fill="#376FA6"/>
<path d="M409.464 465.079V459.253L458.15 499.201L473.131 488.798V494.207L456.902 505.859L409.464 465.079Z" fill="#376FA6"/>
<path d="M559.684 499.201L560.516 492.959L576.745 502.53L585.484 494.624V500.449L576.745 509.188L559.684 499.201Z" fill="#376FA6"/>
<path d="M597.551 505.859V500.449L620.438 513.765L629.176 505.027L628.344 509.188L619.19 519.591L597.551 505.859Z" fill="#376FA6"/>
<path d="M510.998 534.571V529.162L518.072 532.907L516.824 535.404L518.072 536.236L575.497 571.19L590.893 554.545L589.645 559.539L573.416 577.848L515.575 542.062V536.236L510.998 534.571Z" fill="#376FA6"/>
<path d="M391.987 452.595V448.85L396.98 453.844L407.383 449.682V452.595L396.98 457.589L391.987 452.595Z" stroke="#004F98" stroke-width="2" stroke-linejoin="round"/>
<path d="M409.464 465.079V459.253L458.15 499.201L473.131 488.798V494.207L456.902 505.859L409.464 465.079Z" stroke="#004F98" stroke-width="2" stroke-linejoin="round"/>
<path d="M559.684 499.201L560.516 492.959L576.745 502.53L585.484 494.624V500.449L576.745 509.188L559.684 499.201Z" stroke="#004F98" stroke-width="2" stroke-linejoin="round"/>
<path d="M597.551 505.859V500.449L620.438 513.765L629.176 505.027L628.344 509.188L619.19 519.591L597.551 505.859Z" stroke="#004F98" stroke-width="2" stroke-linejoin="round"/>
<path d="M510.998 534.571V529.162L518.072 532.907L516.824 535.404L518.072 536.236L575.497 571.19L590.893 554.545L589.645 559.539L573.416 577.848L515.575 542.062V536.236L510.998 534.571Z" stroke="#004F98" stroke-width="2" stroke-linejoin="round"/>
<path d="M472.298 391.009L474.379 376.861L479.789 397.667L742.778 391.841L741.113 400.164H680.359L691.179 428.46H683.688L676.198 407.238L574.664 409.319L571.752 400.164H522.233L530.972 431.789H526.394L522.233 411.815H477.292L472.298 391.009Z" fill="#376FA6" stroke="#004F98" stroke-width="2" stroke-linejoin="round"/>
<path d="M481.037 444.273L483.118 431.789L485.614 458.421L617.941 455.092L621.27 463.414H635.834L640.412 475.066H680.359L682.024 476.73L669.54 483.804H637.915L634.586 473.401H617.941L615.444 465.079L485.614 468.824L481.037 444.273Z" fill="#376FA6" stroke="#004F98" stroke-width="2" stroke-linejoin="round"/>
<path d="M669.54 485.885L672.037 477.146L679.943 497.536L845.976 490.046L842.647 498.369L677.447 505.859L669.54 485.885Z" fill="#376FA6" stroke="#004F98" stroke-width="2" stroke-linejoin="round"/>
<path d="M486.447 458.837L483.118 436.783V431.789H530.972L522.649 399.748H571.752L582.571 431.789L691.179 428.876L680.776 399.748H749.852L758.174 420.97H700.333L703.246 428.876H754.013L764.416 455.092H673.702L680.776 474.65H640.412L636.251 463.414H620.438L617.525 455.092L486.447 458.837Z" fill="white"/>
<path d="M742.778 391.841L479.373 397.667L474.379 376.029L740.697 369.787L744.858 379.358H738.617L742.778 391.841Z" fill="white"/>
<path d="M845.976 490.046L679.943 497.536L672.037 477.146L813.935 470.905L801.451 443.857H794.377L777.316 409.735H794.377L791.464 403.909H804.364L845.976 490.046Z" fill="white"/>
<path d="M797.29 392.674H769.826L759.839 370.203H769.826L767.329 363.129H782.725L797.29 392.674Z" fill="white"/>
<path d="M773.571 339.41L782.725 359.384H767.329L764 351.061L625.431 359.384L620.438 348.981L773.571 339.41Z" fill="white"/>
<path d="M607.954 348.981L613.364 359.384L561.765 363.129L493.105 367.706L490.608 359.384L558.464 353.558L557.603 351.061L607.954 348.981Z" fill="white"/>
<path d="M561.765 363.129L613.364 359.384L607.954 348.981L557.603 351.061L558.464 353.558M561.765 363.129L558.464 353.558M561.765 363.129L493.105 367.706L490.608 359.384L558.464 353.558M483.118 436.783L486.447 458.837L617.525 455.092L620.438 463.414H636.251L640.412 474.65H680.776L673.702 455.092H764.416L754.013 428.876H703.246L700.333 420.97H758.174L749.852 399.748H680.776L691.179 428.876L582.571 431.789L571.752 399.748H522.649L530.972 431.789H483.118V436.783ZM479.373 397.667L742.778 391.841L738.617 379.358H744.858L740.697 369.787L474.379 376.029L479.373 397.667ZM679.943 497.536L845.976 490.046L804.364 403.909H791.464L794.377 409.735H777.316L794.377 443.857H801.451L813.935 470.905L672.037 477.146L679.943 497.536ZM769.826 392.674H797.29L782.726 363.129H767.329L769.826 370.203H759.839L769.826 392.674ZM782.726 359.384L773.571 339.41L620.438 348.981L625.431 359.384L764 351.061L767.329 359.384H782.726Z" stroke="#004F98" stroke-width="2" stroke-linejoin="round"/>
<path d="M757.342 379.358L759.839 370.619L769.41 392.674H797.29L795.209 400.58L767.329 401.412L757.342 379.358Z" fill="#376FA6"/>
<path d="M774.403 418.473L777.316 409.735L794.377 443.441L801.451 444.273L813.935 470.905H806.861L798.538 452.595H791.048L774.403 418.473Z" fill="#376FA6"/>
<path d="M617.941 358.968L620.438 349.397L625.015 358.968L764 351.061L767.329 358.968H783.142L781.893 363.129H767.329L769.41 370.203H766.497L761.919 358.968L622.935 368.539L617.941 358.968Z" fill="#376FA6"/>
<path d="M757.342 379.358L759.839 370.619L769.41 392.674H797.29L795.209 400.58L767.329 401.412L757.342 379.358Z" stroke="#004F98" stroke-width="2" stroke-linejoin="round"/>
<path d="M774.403 418.473L777.316 409.735L794.377 443.441L801.451 444.273L813.935 470.905H806.861L798.538 452.595H791.048L774.403 418.473Z" stroke="#004F98" stroke-width="2" stroke-linejoin="round"/>
<path d="M617.941 358.968L620.438 349.397L625.015 358.968L764 351.061L767.329 358.968H783.142L781.893 363.129H767.329L769.41 370.203H766.497L761.919 358.968L622.935 368.539L617.941 358.968Z" stroke="#004F98" stroke-width="2" stroke-linejoin="round"/>
<path d="M489.359 369.371L490.608 359.384L493.521 367.706L613.78 359.384L612.532 372.7L560.516 373.948V371.451L491.856 375.197L489.359 369.371Z" fill="#376FA6" stroke="#004F98" stroke-width="2" stroke-linejoin="round"/>
<path d="M756.51 429.292L758.174 420.97H700.333L704.078 429.292H756.51Z" fill="#376FA6"/>
<path d="M764.416 455.092H674.118L676.198 462.166H697.42L700.333 467.16H716.562V460.502H763.168L764.416 455.092Z" fill="#376FA6"/>
<path d="M756.51 429.292L758.174 420.97H700.333L704.078 429.292H756.51Z" stroke="#004F98" stroke-width="2" stroke-linejoin="round"/>
<path d="M764.416 455.092H674.118L676.198 462.166H697.42L700.333 467.16H716.562V460.502H763.168L764.416 455.092Z" stroke="#004F98" stroke-width="2" stroke-linejoin="round"/>
<path d="M197.658 297.382L231.78 288.227C244.68 295.717 261.5 308.522 249.257 324.846C245.512 329.839 258.412 340.242 263.821 345.236C268.149 349.231 276.999 359.661 280.882 364.377C290.314 367.29 309.844 376.778 312.508 391.425C315.171 406.073 318.333 397.528 319.582 391.425C321.524 389.9 324.825 391.509 322.495 410.151C330.484 415.144 339.972 423.051 343.717 426.38C350.236 430.957 363.524 440.861 364.523 443.857C365.771 447.602 371.597 464.663 374.51 465.911C377.423 467.16 391.571 471.737 390.322 479.643C389.324 485.968 414.319 498.923 426.941 504.61C430.548 505.859 436.678 510.187 432.351 517.51C426.941 526.665 432.767 537.068 439.841 539.149C446.915 541.229 452.741 546.639 462.312 539.149C471.882 531.658 479.789 540.813 481.453 544.142C483.118 547.471 509.333 557.458 510.166 568.277C520.152 568.277 534.855 576.322 540.959 580.345C546.784 582.287 558.602 587.668 559.268 593.661C567.923 596.657 575.358 610.444 577.993 616.963L595.471 629.031L625.431 639.434C632.367 640.405 645.738 644.677 643.741 653.998C648.59 659.171 651.478 658.745 652.402 657.826L652.479 657.743C652.455 657.771 652.43 657.799 652.402 657.826L635.834 675.637L625.431 667.314H620.022L465.641 576.183C458.15 574.796 442.088 570.607 437.76 564.948C433.433 559.289 415.706 546.778 407.383 541.229C395.177 533.045 369.516 514.265 364.523 504.61C359.529 494.956 348.572 477.285 343.717 469.656L305.017 429.709L218.464 329.839L197.658 297.382Z" fill="#376FA6"/>
<path d="M642.909 682.295L659.553 661.905L675.782 669.395C677.447 668.008 681.525 665.234 684.521 665.234C722.471 663.569 842.924 692.559 898.407 707.262H914.22L925.871 739.719L955 747.21C899.24 746.655 784.723 745.129 772.739 743.465C760.754 741.8 681.192 701.991 642.909 682.295Z" fill="#376FA6"/>
<path d="M592.142 592.412V584.922L620.438 600.735L631.673 592.412L630.425 600.735L620.438 609.889L592.142 592.412Z" fill="#376FA6"/>
<path d="M660.802 662.737V656.079L676.198 662.737L685.769 653.582H698.669V656.079H685.769L676.198 668.979L660.802 662.737Z" fill="#376FA6"/>
<path d="M592.142 592.412V584.922L620.438 600.735L631.673 592.412L630.425 600.735L620.438 609.889L592.142 592.412Z" stroke="#004F98" stroke-width="2" stroke-linejoin="round"/>
<path d="M660.802 662.737V656.079L676.198 662.737L685.769 653.582H698.669V656.079H685.769L676.198 668.979L660.802 662.737Z" stroke="#004F98" stroke-width="2" stroke-linejoin="round"/>
<path d="M223.041 281.153L194.745 289.475L170.194 264.092L153.549 224.144L140.233 202.506C140.788 197.096 142.314 184.696 143.978 178.371C153.549 149.658 150.636 139.255 150.636 133.43C148.639 128.103 149.804 113.456 150.636 106.798C152.578 92.7884 157.128 63.2715 159.791 57.2793C158.792 48.624 161.594 33.9765 163.12 27.7347L156.462 1.10286C158.959 0.270616 166.282 -0.894526 175.603 1.10286C184.925 3.10025 190.723 9.14788 191.416 11.922C202.235 21.0767 191.416 58.9438 191.416 64.7695C191.416 74.1207 194.745 105.549 191.416 113.04C195.577 125.107 189.335 130.933 187.255 135.926C201.237 148.244 198.074 159.923 194.745 164.223L189.335 188.774C190.029 198.761 191.416 220.482 191.416 227.473C198.074 235.13 199.184 246.199 198.906 250.776L207.229 268.669L223.041 281.153Z" fill="#376FA6"/>
<path d="M385.329 348.565L367.02 354.807L348.294 331.088L367.02 325.678L385.329 348.565Z" fill="white"/>
<path d="M337.059 352.726L324.159 354.807L322.078 348.565L334.562 346.9L337.059 352.726Z" fill="white"/>
<path d="M391.155 388.929L385.329 367.706H395.316L401.142 388.929H391.155Z" fill="white"/>
<path d="M392.819 325.678L367.02 296.133L379.503 290.724L362.858 271.166L327.488 282.401L305.85 259.515L358.697 247.863L421.532 316.107L392.819 325.678Z" fill="white"/>
<path d="M276.721 303.207C275.39 302.875 282.824 301.127 286.708 300.295L312.091 331.088L302.521 334.417C294.476 324.152 278.053 303.54 276.721 303.207Z" fill="white"/>
<path d="M284.627 286.979L276.721 289.059L270.895 281.153L277.969 279.488L284.627 286.979Z" fill="white"/>
<path d="M324.159 320.268L302.521 294.469L307.93 292.804L329.153 318.604L324.159 320.268Z" fill="white"/>
<path d="M385.329 348.565L367.02 354.807L348.294 331.088L367.02 325.678L385.329 348.565Z" stroke="#004F98" stroke-width="2" stroke-linejoin="round"/>
<path d="M337.059 352.726L324.159 354.807L322.078 348.565L334.562 346.9L337.059 352.726Z" stroke="#004F98" stroke-width="2" stroke-linejoin="round"/>
<path d="M391.155 388.929L385.329 367.706H395.316L401.142 388.929H391.155Z" stroke="#004F98" stroke-width="2" stroke-linejoin="round"/>
<path d="M392.819 325.678L367.02 296.133L379.503 290.724L362.858 271.166L327.488 282.401L305.85 259.515L358.697 247.863L421.532 316.107L392.819 325.678Z" stroke="#004F98" stroke-width="2" stroke-linejoin="round"/>
<path d="M276.721 303.207C275.39 302.875 282.824 301.127 286.708 300.295L312.091 331.088L302.521 334.417C294.476 324.152 278.053 303.54 276.721 303.207Z" stroke="#004F98" stroke-width="2" stroke-linejoin="round"/>
<path d="M284.627 286.979L276.721 289.059L270.895 281.153L277.969 279.488L284.627 286.979Z" stroke="#004F98" stroke-width="2" stroke-linejoin="round"/>
<path d="M324.159 320.268L302.521 294.469L307.93 292.804L329.153 318.604L324.159 320.268Z" stroke="#004F98" stroke-width="2" stroke-linejoin="round"/>
<path d="M348.294 337.746V331.088L365.771 354.39L384.913 348.565V354.39L364.939 360.216L348.294 337.746Z" fill="#376FA6"/>
<path d="M384.913 376.029V368.122L391.155 388.929H400.725V393.09H389.906L384.913 376.029Z" fill="#376FA6"/>
<path d="M321.662 356.055V348.565L324.991 354.39L337.059 352.726V357.719L324.159 359.8L321.662 356.055Z" fill="#376FA6"/>
<path d="M302.105 299.046V294.469L323.327 320.268L329.153 318.604V321.933L323.327 323.597L302.105 299.046Z" fill="#376FA6"/>
<path d="M276.305 307.785V303.207L302.105 333.584L312.092 331.088V335.249L302.105 337.746L276.305 307.785Z" fill="#376FA6"/>
<path d="M270.479 288.227V281.569L277.137 289.475L284.627 286.979L284.211 292.804L276.305 295.301L270.479 288.227Z" fill="#376FA6"/>
<path d="M306.266 270.75V259.931L327.072 281.569L362.026 270.75L379.087 289.475L370.765 293.637L362.026 284.898L327.072 295.301L306.266 270.75Z" fill="#376FA6"/>
<path d="M365.771 310.698L367.436 296.966L392.819 325.678L422.364 316.107L420.699 329.839L392.819 340.658L365.771 310.698Z" fill="#376FA6"/>
<path d="M348.294 337.746V331.088L365.771 354.39L384.913 348.565V354.39L364.939 360.216L348.294 337.746Z" stroke="#004F98" stroke-width="2" stroke-linejoin="round"/>
<path d="M384.913 376.029V368.122L391.155 388.929H400.725V393.09H389.906L384.913 376.029Z" stroke="#004F98" stroke-width="2" stroke-linejoin="round"/>
<path d="M321.662 356.055V348.565L324.991 354.39L337.059 352.726V357.719L324.159 359.8L321.662 356.055Z" stroke="#004F98" stroke-width="2" stroke-linejoin="round"/>
<path d="M302.105 299.046V294.469L323.327 320.268L329.153 318.604V321.933L323.327 323.597L302.105 299.046Z" stroke="#004F98" stroke-width="2" stroke-linejoin="round"/>
<path d="M276.305 307.785V303.207L302.105 333.584L312.092 331.088V335.249L302.105 337.746L276.305 307.785Z" stroke="#004F98" stroke-width="2" stroke-linejoin="round"/>
<path d="M270.479 288.227V281.569L277.137 289.475L284.627 286.979L284.211 292.804L276.305 295.301L270.479 288.227Z" stroke="#004F98" stroke-width="2" stroke-linejoin="round"/>
<path d="M306.266 270.75V259.931L327.072 281.569L362.026 270.75L379.087 289.475L370.765 293.637L362.026 284.898L327.072 295.301L306.266 270.75Z" stroke="#004F98" stroke-width="2" stroke-linejoin="round"/>
<path d="M365.771 310.698L367.436 296.966L392.819 325.678L422.364 316.107L420.699 329.839L392.819 340.658L365.771 310.698Z" stroke="#004F98" stroke-width="2" stroke-linejoin="round"/>
<path d="M166.865 329.423L161.039 322.765L164.368 321.517L161.039 317.772L165.617 316.107L164.368 314.027L177.684 309.033L188.087 320.268L166.865 329.423Z" fill="white" stroke="#004F98" stroke-width="2" stroke-linejoin="round"/>
<path d="M161.039 326.926V322.765L166.865 329.007L188.087 320.268V323.181L166.033 332.336L161.039 326.926Z" fill="#376FA6" stroke="#004F98" stroke-width="2" stroke-linejoin="round"/>
<path d="M94.8758 146.329L93.2113 143.833L104.447 138.839L121.091 161.31L114.85 163.39L101.118 143.833L94.8758 146.329Z" fill="white"/>
<path d="M91.5468 133.014L86.1373 133.846L84.8889 131.349L89.8823 130.517L91.5468 133.014Z" fill="white"/>
<path d="M94.8758 146.329L93.2113 143.833L104.447 138.839L121.091 161.31L114.85 163.39L101.118 143.833L94.8758 146.329Z" stroke="#004F98" stroke-width="2" stroke-linejoin="round"/>
<path d="M91.5468 133.014L86.1373 133.846L84.8889 131.349L89.8823 130.517L91.5468 133.014Z" stroke="#004F98" stroke-width="2" stroke-linejoin="round"/>
<path d="M31.6253 104.717H12.8998L23.3028 89.7368H41.1961L31.6253 104.717Z" fill="white"/>
<path d="M28.7124 86.824H19.9739L22.4706 82.2466H31.6253L28.7124 86.824Z" fill="white"/>
<path d="M31.6253 104.717H12.8998L23.3028 89.7368H41.1961L31.6253 104.717Z" stroke="#004F98" stroke-width="2" stroke-linejoin="round"/>
<path d="M28.7124 86.824H19.9739L22.4706 82.2466H31.6253L28.7124 86.824Z" stroke="#004F98" stroke-width="2" stroke-linejoin="round"/>
<path d="M12.8998 108.878V104.717L31.6253 104.301L41.6122 89.7368V93.4819L32.0414 108.462L12.8998 108.878Z" fill="#376FA6"/>
<path d="M19.9739 89.7368V86.824H28.7124L32.0414 82.2466V85.5756L29.9608 89.7368H19.9739Z" fill="#376FA6"/>
<path d="M12.8998 108.878V104.717L31.6253 104.301L41.6122 89.7368V93.4819L32.0414 108.462L12.8998 108.878Z" stroke="#004F98" stroke-width="2" stroke-linejoin="round"/>
<path d="M19.9739 89.7368V86.824H28.7124L32.0414 82.2466V85.5756L29.9608 89.7368H19.9739Z" stroke="#004F98" stroke-width="2" stroke-linejoin="round"/>
<path d="M66.9956 79.3338H50.3508L55.7603 63.105H48.2701L53.2636 52.2859H79.4793L75.7342 63.105H72.4052L66.9956 79.3338Z" fill="white" stroke="#004F98" stroke-width="2" stroke-linejoin="round"/>
<path d="M48.2701 70.5952V63.105H55.3442L53.2636 70.5952H48.2701Z" fill="#376FA6"/>
<path d="M50.3508 87.2401V79.3338H66.9956L72.4052 63.105H75.3181L79.8954 52.2859V58.1116L75.7342 69.763H73.6536L68.244 86.824L50.3508 87.2401Z" fill="#376FA6"/>
<path d="M48.2701 70.5952V63.105H55.3442L53.2636 70.5952H48.2701Z" stroke="#004F98" stroke-width="2" stroke-linejoin="round"/>
<path d="M50.3508 87.2401V79.3338H66.9956L72.4052 63.105H75.3181L79.8954 52.2859V58.1116L75.7342 69.763H73.6536L68.244 86.824L50.3508 87.2401Z" stroke="#004F98" stroke-width="2" stroke-linejoin="round"/>
<path d="M84.4728 47.2924V40.2183L85.305 43.5473H91.5469V47.2924H84.4728Z" fill="#376FA6"/>
<path d="M91.963 57.2793V50.2053H118.179L120.675 45.6279H123.172L125.253 40.2183V47.2924L123.588 52.702H120.675L119.427 57.2793H91.963Z" fill="#376FA6"/>
<path d="M123.588 63.9373V61.0244H129.414V63.9373H123.588Z" fill="#376FA6"/>
<path d="M129.414 73.092V68.9307H135.656V73.092H129.414Z" fill="#376FA6"/>
<path d="M84.4728 47.2924V40.2183L85.305 43.5473H91.5469V47.2924H84.4728Z" stroke="#004F98" stroke-width="2" stroke-linejoin="round"/>
<path d="M91.963 57.2793V50.2053H118.179L120.675 45.6279H123.172L125.253 40.2183V47.2924L123.588 52.702H120.675L119.427 57.2793H91.963Z" stroke="#004F98" stroke-width="2" stroke-linejoin="round"/>
<path d="M123.588 63.9373V61.0244H129.414V63.9373H123.588Z" stroke="#004F98" stroke-width="2" stroke-linejoin="round"/>
<path d="M129.414 73.092V68.9307H135.656V73.092H129.414Z" stroke="#004F98" stroke-width="2" stroke-linejoin="round"/>
<path d="M144.394 46.044V43.1312H149.388L151.052 40.2183V46.044H144.394Z" fill="#376FA6"/>
<path d="M126.085 47.2924V43.1312L137.736 43.5473L139.817 40.2183L140.233 47.2924H133.969L136.072 53.9503L141.898 53.1181V56.4471L134.824 57.2793L133.575 50.2053V47.2924H126.085Z" fill="#376FA6"/>
<path d="M146.059 70.5952V67.2663L140.233 68.0985L136.904 57.6954V61.4405L139.817 71.4275L146.059 70.5952Z" fill="#376FA6"/>
<path d="M144.394 46.044V43.1312H149.388L151.052 40.2183V46.044H144.394Z" stroke="#004F98" stroke-width="2" stroke-linejoin="round"/>
<path d="M126.085 47.2924V43.1312L137.736 43.5473L139.817 40.2183L140.233 47.2924H133.969L136.072 53.9503L141.898 53.1181V56.4471L134.824 57.2793L133.575 50.2053V47.2924H126.085Z" stroke="#004F98" stroke-width="2" stroke-linejoin="round"/>
<path d="M146.059 70.5952V67.2663L140.233 68.0985L136.904 57.6954V61.4405L139.817 71.4275L146.059 70.5952Z" stroke="#004F98" stroke-width="2" stroke-linejoin="round"/>
<path d="M91.963 43.5473H85.305L84.4728 40.2183H125.253L123.172 45.6279H120.259L118.595 50.2053H91.963V43.5473Z" fill="white"/>
<path d="M123.588 61.0244L127.333 48.1246H131.911L129.414 61.0244H123.588Z" fill="white"/>
<path d="M129.414 69.3469L130.662 63.9373H136.488L135.656 69.3469H129.414Z" fill="white"/>
<path d="M138.153 43.5473H126.085L127.333 40.2183H139.401L138.153 43.5473Z" fill="white"/>
<path d="M140.649 68.0985L137.32 57.6954L142.73 56.4471L146.059 67.2663L140.649 68.0985Z" fill="white"/>
<path d="M140.649 76.0048V73.5081H146.059V76.0048H140.649Z" fill="white"/>
<path d="M149.804 43.1312H144.394L145.227 40.2183H150.636L149.804 43.1312Z" fill="white"/>
<path d="M141.898 53.1181L135.656 53.9503L133.991 46.044L139.817 45.6279L141.898 53.1181Z" fill="white"/>
<path d="M91.963 43.5473H85.305L84.4728 40.2183H125.253L123.172 45.6279H120.259L118.595 50.2053H91.963V43.5473Z" stroke="#004F98" stroke-width="2" stroke-linejoin="round"/>
<path d="M123.588 61.0244L127.333 48.1246H131.911L129.414 61.0244H123.588Z" stroke="#004F98" stroke-width="2" stroke-linejoin="round"/>
<path d="M129.414 69.3469L130.662 63.9373H136.488L135.656 69.3469H129.414Z" stroke="#004F98" stroke-width="2" stroke-linejoin="round"/>
<path d="M138.153 43.5473H126.085L127.333 40.2183H139.401L138.153 43.5473Z" stroke="#004F98" stroke-width="2" stroke-linejoin="round"/>
<path d="M140.649 68.0985L137.32 57.6954L142.73 56.4471L146.059 67.2663L140.649 68.0985Z" stroke="#004F98" stroke-width="2" stroke-linejoin="round"/>
<path d="M140.649 76.0048V73.5081H146.059V76.0048H140.649Z" stroke="#004F98" stroke-width="2" stroke-linejoin="round"/>
<path d="M149.804 43.1312H144.394L145.227 40.2183H150.636L149.804 43.1312Z" stroke="#004F98" stroke-width="2" stroke-linejoin="round"/>
<path d="M141.898 53.1181L135.656 53.9503L133.991 46.044L139.817 45.6279L141.898 53.1181Z" stroke="#004F98" stroke-width="2" stroke-linejoin="round"/>
</svg>
