<?xml version="1.0" encoding="utf-8"?>
<!-- Generator: Adobe Illustrator 24.1.2, SVG Export Plug-In . SVG Version: 6.00 Build 0)  -->
<svg version="1.1" id="Layer_1" xmlns="http://www.w3.org/2000/svg" xmlns:xlink="http://www.w3.org/1999/xlink" x="0px" y="0px"
	 viewBox="0 0 1440 171" style="enable-background:new 0 0 1440 171;" xml:space="preserve">
<style type="text/css">
	.st0{fill:#004F98;}
	.st1{fill:none;stroke:#004F98;stroke-width:2;stroke-linejoin:round;}
</style>
<path class="st0" d="M354.7,170c1.5-8.3,2.3-16.8,2.3-25.5C357,66.4,293.7,3,215.5,3S74,66.4,74,144.5c0,8.7,0.8,17.2,2.3,25.5h-3
	c-1.5-8.3-2.2-16.8-2.2-25.5C71,64.7,135.7,0,215.5,0S360,64.7,360,144.5c0,8.7-0.8,17.2-2.2,25.5H354.7z"/>
<path class="st0" d="M76,167.9L0,168l0,3l76-0.1V167.9z"/>
<path class="st0" d="M355,170.5l1085-1.5v-3l-1085,1.5V170.5z"/>
<path class="st0" d="M159.4,95.9c-12.4-64,30.5-80.7,53.5-81c43.5-11.5,54,39.5,56,51.5c8.8,20,3.7,33.7,0,38
	c-4.7,4.2-12.7,13.7-7.5,18.5c6.5,6,14.5,15.5,7.5,32c-5.4,12.8-17.3,7.8-23,3.4c-0.2-0.1-0.4-0.3-0.5-0.4c0.2,0.1,0.3,0.3,0.5,0.4
	c0.9,0.5,2.7,0.2,5-3.4c2.8-4.4-8.2-12.8-14-16.5c-1-2-3-8.6-3-19c8.4,2,14.8-12.8,17-20.5c0.7-10,1.6-32,0-40
	c-2-10-11-13.5-22-17.5c-3.2,7.2-15,11.7-20.5,13c-5.5,2.7-16.5,11.1-16.5,23.5c-2.8-6-8.2-4.8-10.5-3.5c0,2.3-0.5,9-2.5,17
	c21.7,16,28.5,39,25.5,60.5s-17,7.5-23,3c-14.4,0-19-6-19.5-9c-1.5-0.2-5.6-1-10-3C128.4,130.4,149.4,103.4,159.4,95.9z"/>
<path class="st1" d="M155.8,222.9c-0.4-11.7-0.4-24.1-3.4-35.5c-5.3,11.3-12.4,21.8-19.6,32"/>
<path class="st1" d="M151.9,142.9c4.4,2,8.5,2.8,10,3c0.5,3,5.1,9,19.5,9c6,4.5,20,18.5,23-3s-3.8-44.5-25.5-60.5
	c2-8,2.5-14.7,2.5-17c2.3-1.3,7.7-2.5,10.5,3.5c0-12.4,11-20.8,16.5-23.5c5.5-1.3,17.3-5.8,20.5-13c11,4,20,7.5,22,17.5
	c1.6,8,0.7,30,0,40c-2.2,7.7-8.6,22.5-17,20.5c0,10.4,2,17,3,19c5.8,3.7,16.8,12.1,14,16.5c-2.3,3.6-4,3.9-5,3.4
	c5.7,4.4,17.6,9.4,23-3.4c7-16.5-1-26-7.5-32c-5.2-4.8,2.8-14.3,7.5-18.5c3.7-4.3,8.8-18,0-38c-2-12-12.5-63-56-51.5
	c-23,0.3-65.9,17-53.5,81C149.4,103.4,128.4,130.4,151.9,142.9z"/>
<path class="st1" d="M211.2,220.2c-4.1-17.2-8.5-34.4-13.1-51.5c-1.1-3.9-2.1-7.9-3.2-11.8"/>
<path class="st1" d="M300.9,222.1C295,206,294,189,288,173c-6-13-12-25-20-37c-3-4-9-4-14-3c-9,2-15,8-24,9c-13,1-26-1-38-4
	c-6-10-12-24-25-24c-5,1-10,3-14,7c-10,12-18,23-27,36c-2,3-2,5-4,8c-9,11-14,22-22,33c-5,8-8,17-9.6,25.7"/>
<path class="st1" d="M266.4,172.9c0.6,1.1,1.6,2.1,1.6,3.1c2,15,2,31,3.2,45.5"/>
<path class="st1" d="M185.4,147.9C178,151,174,158,168,163c4,20,8,40,16.9,58"/>
<path class="st1" d="M264,221.4c1-24.4,1-49.4,3-73.4c0-1,0-2-2-2c-7-2-14-2-20.6-3.6c0.7,3.3,4.3,0.7,0,0
	c5.6,25.6,9.6,51.6,12.5,78.2"/>
<path class="st1" d="M245.9,158.3c-0.2-0.1-0.4-0.3-0.5-0.4C245.6,158.1,245.7,158.2,245.9,158.3z"/>
</svg>
