<svg width="237" height="200" viewBox="0 0 237 200" fill="none" xmlns="http://www.w3.org/2000/svg">
<path d="M71.0609 83.6765C58.6609 19.6765 101.561 3.00984 124.561 2.6765C168.061 -8.8235 178.561 42.1765 180.561 54.1765C189.361 74.1765 184.227 87.8432 180.561 92.1765C175.894 96.3432 167.861 105.877 173.061 110.677C179.561 116.677 187.561 126.176 180.561 142.676C175.13 155.478 163.304 150.504 157.578 146.087C157.36 145.98 157.186 145.833 157.061 145.676C157.227 145.812 157.399 145.949 157.578 146.087C158.519 146.547 160.287 146.249 162.561 142.676C165.361 138.277 154.394 129.843 148.561 126.177C147.561 124.177 145.561 117.577 145.561 107.177C153.961 109.177 160.394 94.3432 162.561 86.6765C163.227 76.6765 164.161 54.6765 162.561 46.6765C160.561 36.6765 151.561 33.1765 140.561 29.1765C137.361 36.3765 125.561 40.8432 120.061 42.1765C114.561 44.8432 103.561 53.2765 103.561 65.6765C100.761 59.6765 95.3941 60.8432 93.0608 62.1765C93.0608 64.5098 92.5608 71.1765 90.5608 79.1765C112.262 95.1765 119.061 118.176 116.061 139.676C113.061 161.176 99.0608 147.176 93.0608 142.676C78.6608 142.676 74.0608 136.676 73.5608 133.676C72.0608 133.51 67.9608 132.676 63.5608 130.676C40.0608 118.176 61.0608 91.1765 71.0609 83.6765Z" fill="#004F98"/>
<path d="M201.061 258.677C205.061 267.077 206.061 284.51 206.061 292.177C210.727 291.843 222.661 292.077 233.061 295.677C239.061 278.877 230.561 251.343 225.561 239.676C220.727 231.176 210.061 208.276 206.061 184.676C202.061 161.076 187.394 135.177 180.561 125.177C178.227 121.677 170.061 116.777 156.061 125.177C142.061 133.577 114.561 128.677 102.561 125.177C97.0608 111.01 81.2608 88.6765 62.0608 112.676C38.0608 142.677 43.5608 137.176 15.0608 180.676C-7.73918 215.477 2.22748 241.51 10.0608 250.176L45.5608 311.177L60.5608 299.676L62.0608 321.677C74.0608 324.677 121.061 327.177 139.561 318.677C145.961 297.077 120.227 193.676 106.561 144.676M201.061 258.677C199.508 255.415 197.52 251.043 195.428 246.176M201.061 258.677H185.061M178.061 160.676C181.561 166.176 180.561 200.176 183.561 213.176C185.629 222.138 190.786 235.377 195.428 246.176M66.9977 274.676C68.1644 249.51 68.8608 192.776 64.0608 175.176C58.4608 187.176 46.7275 204.176 41.5608 211.176C38.3941 214.343 34.7608 224.477 45.5608 239.676C53.8794 251.384 60.8691 264.611 66.9977 274.676ZM66.9977 274.676C70.8151 280.946 74.2984 285.99 77.5608 288.676M123.561 262.176C111.061 242.01 84.8608 191.576 80.0608 151.176C89.6608 139.576 95.3941 136.01 97.0608 135.676M76.5608 272.176V256.676M76.5608 256.676H108.561V240.676L72.0608 243.176L73.0608 256.676H76.5608ZM189.061 284.176L185.061 258.677M185.061 258.677H179.061V246.176H195.428M199.561 318.677C192.727 320.01 177.061 321.976 169.061 319.176C170.061 307.676 172.061 261.177 169.061 213.176C164.661 173.976 158.561 141.51 156.061 130.176L178.061 133.676C177.561 160.01 176.161 214.176 174.561 220.176M157.578 146.087C158.519 146.547 160.287 146.249 162.561 142.676C165.361 138.277 154.394 129.843 148.561 126.177C147.561 124.177 145.561 117.577 145.561 107.177C153.961 109.177 160.394 94.3432 162.561 86.6765C163.227 76.6765 164.161 54.6765 162.561 46.6765C160.561 36.6765 151.561 33.1765 140.561 29.1765C137.361 36.3765 125.561 40.8432 120.061 42.1765C114.561 44.8432 103.561 53.2765 103.561 65.6765C100.761 59.6765 95.3941 60.8432 93.0608 62.1765C93.0608 64.5098 92.5608 71.1765 90.5608 79.1765C112.262 95.1765 119.061 118.176 116.061 139.676C113.061 161.176 99.0608 147.176 93.0608 142.676C78.6608 142.676 74.0608 136.676 73.5608 133.676C72.0608 133.51 67.9608 132.676 63.5608 130.676C40.0608 118.176 61.0608 91.1765 71.0609 83.6765C58.6609 19.6765 101.561 3.00984 124.561 2.6765C168.061 -8.8235 178.561 42.1765 180.561 54.1765C189.361 74.1765 184.227 87.8432 180.561 92.1765C175.894 96.3432 167.861 105.877 173.061 110.677C179.561 116.677 187.561 126.176 180.561 142.676C175.13 155.478 163.304 150.504 157.578 146.087ZM157.578 146.087C157.36 145.98 157.186 145.833 157.061 145.676C157.227 145.812 157.399 145.949 157.578 146.087Z" stroke="#004F98" stroke-width="2" stroke-linejoin="round"/>
</svg>
