<svg width="1440" height="171" viewBox="0 0 1440 171" fill="none" xmlns="http://www.w3.org/2000/svg">
<path d="M354.713 170C356.218 161.728 357.004 153.206 357.004 144.5C357.004 66.3517 293.652 3 215.504 3C137.356 3 74.0042 66.3517 74.0042 144.5C74.0042 153.206 74.7904 161.728 76.2958 170H73.247C71.7732 161.722 71.0042 153.201 71.0042 144.5C71.0042 64.6949 135.699 0 215.504 0C295.309 0 360.004 64.6949 360.004 144.5C360.004 153.201 359.235 161.722 357.761 170H354.713Z" fill="#004F98"/>
<path d="M76.0042 167.894L0 168L0.00416666 171L76.0042 170.894V167.894Z" fill="#004F98"/>
<path d="M355.004 170.507L1440 169L1440 166L355.004 167.507V170.507Z" fill="#004F98"/>
</svg>
