<?xml version="1.0" encoding="utf-8"?>
<!-- Generator: Adobe Illustrator 24.1.2, SVG Export Plug-In . SVG Version: 6.00 Build 0)  -->
<svg version="1.1" id="Layer_1" xmlns="http://www.w3.org/2000/svg" xmlns:xlink="http://www.w3.org/1999/xlink" x="0px" y="0px"
	 viewBox="0 0 281 671" style="enable-background:new 0 0 281 671;" xml:space="preserve">
<style type="text/css">
	.st0{fill:none;stroke:#004F98;stroke-width:2;stroke-linejoin:round;}
	.st1{fill:#FFFFFF;stroke:#004F98;stroke-width:2;stroke-linejoin:round;}
	.st2{fill:#376FA6;stroke:#004F98;stroke-width:2;stroke-linejoin:round;}
	.st3{fill:none;stroke:#004F98;stroke-width:3;stroke-linejoin:round;}
	.st4{fill:#004F98;stroke:#004F98;stroke-width:2;stroke-linejoin:round;}
</style>
<path class="st0" d="M216.9,255.4c4,8.4,5,25.8,5,33.5c4.7-0.3,16.6-0.1,27,3.5c6-16.8-2.5-44.3-7.5-56c-4.8-8.5-15.5-31.4-19.5-55
	s-18.7-49.5-25.5-59.5c-2.3-3.5-10.5-8.4-24.5,0s-41.5,3.5-53.5,0c-5.5-14.2-21.3-36.5-40.5-12.5c-24,30-18.5,24.5-47,68
	c-22.8,34.8-12.8,60.8-5,69.5l35.5,61l15-11.5l1.5,22c12,3,59,5.5,77.5-3c6.4-21.6-19.3-125-33-174 M216.9,255.4
	c-1.6-3.3-3.5-7.6-5.6-12.5 M216.9,255.4h-16 M193.9,157.4c3.5,5.5,2.5,39.5,5.5,52.5c2.1,9,7.2,22.2,11.9,33 M82.9,271.4
	c1.2-25.2,1.9-81.9-2.9-99.5c-5.6,12-17.3,29-22.5,36c-3.2,3.2-6.8,13.3,4,28.5c13.5,19,23.5,42,32,49 M139.4,258.9
	c-12.5-20.2-38.7-70.6-43.5-111c9.6-11.6,15.3-15.2,17-15.5 M92.4,268.9v-15.5 M92.4,253.4h32v-16l-36.5,2.5l1,13.5H92.4z
	 M204.9,280.9l-4-25.5 M200.9,255.4h-6v-12.5h16.4 M215.4,315.4c-6.8,1.3-22.5,3.3-30.5,0.5c1-11.5,3-58,0-106
	c-4.4-39.2-10.5-71.7-13-83l22,3.5c-0.5,26.3-1.9,80.5-3.5,86.5"/>
<path class="st1" d="M63.1,305.6l15.5-15c6-3.2,12.5-10.5,36-12.5c21-1,9,6,7,5.5c-3,1-12,1-13.5,1.5s-11.5,3,3,7
	c11.6,3.2,16.8,5.3,18,6c4.5,2.3,9.9,6.5-4.5,4.5c-7.3-1.4-12-2.6-14.7-3.4c6,2.2,15.3,5.7,20.2,8.4c7.5,4-4.5,5.5-26.5-2
	c28.5,12.5,19,12,15.5,11.5c-2.8-0.4-10.5-3.2-14-4.5C92.9,315.3,67.5,317.6,63.1,305.6z"/>
<path class="st1" d="M216.6,314.9c6.8-10.8,8.8-21.5,9-25.5c7.2-2.4,12.7-1,14.5,0c-0.2,11.5-0.9,38.2-2.5,53
	c-8.4,18.8-17.5,19.2-21,17l-2.5-7.5C214.9,344.4,216.6,326.5,216.6,314.9z"/>
<path class="st2" d="M82.5,397c2-27.6,9.2-61.7,12.5-75c19.5,2,52.5-1.5,59.5-5.5c3.6-8.8-2.2-48.3-6-66.5h37c2,6-1,64.5-1,67
	c7.2,3.2,22,1,28.5-0.5c0.7,0,2,0.1,2,0.5c0.4,9.6-1.5,28.3-2.5,36.5c-1.7,4.3-5.5,14.4-7.5,20c-14.5,52.5-10,49.5-18.5,103
	c-4,44.8,1.7,81.3,5,94l-55,4.5l-2-85.5c-8.8,24.3-27.3,77.2-30.5,94c-22.8,2-44.5-7.8-52.5-13l18-81C73,470.2,80.5,424.6,82.5,397z
	"/>
<path class="st0" d="M64,577.5L60.5,598 M60.5,598c-8.7,12-27.4,36-33,36v11c4.7,2.5,17.4,6.4,31,2c6.4-8.8,18.7-23.7,24-30v-11.5
	C80.2,603,72.5,598,60.5,598z M87.5,582.5c-1,5.3-3.4,18.2-5,27"/>
<path class="st3" d="M144.4,595.7c1-1,7.5-7.5,7.5-9c0-1.2,0-10.2,0-14.5h21.5v17.5 M144.4,595.7c-0.8,0.8-0.3,11.3,0,16.5
	c19.2,6.3,59.8,18,69,14c11.5-5,5.5-17-8-20c-6.4-4.4-24-12.8-32-16.5 M144.4,595.7c16.8,4.8,26.3-2,29-6"/>
<path class="st4" d="M89.3,83.7c-12.4-64,30.5-80.7,53.5-81c43.5-11.5,54,39.5,56,51.5c8.8,20,3.7,33.7,0,38
	c-4.7,4.2-12.7,13.7-7.5,18.5c6.5,6,14.5,15.5,7.5,32c-5.4,12.8-17.3,7.8-23,3.4c-0.2-0.1-0.4-0.3-0.5-0.4c0.2,0.1,0.3,0.3,0.5,0.4
	c0.9,0.5,2.7,0.2,5-3.4c2.8-4.4-8.2-12.8-14-16.5c-1-2-3-8.6-3-19c8.4,2,14.8-12.8,17-20.5c0.7-10,1.6-32,0-40
	c-2-10-11-13.5-22-17.5c-3.2,7.2-15,11.7-20.5,13c-5.5,2.7-16.5,11.1-16.5,23.5c-2.8-6-8.2-4.8-10.5-3.5c0,2.3-0.5,9-2.5,17
	c21.7,16,28.5,39,25.5,60.5s-17,7.5-23,3c-14.4,0-19-6-19.5-9c-1.5-0.2-5.6-1-10-3C58.3,118.2,79.3,91.2,89.3,83.7z"/>
</svg>
